<mxfile host="app.diagrams.net" agent="Mozilla/5.0 (Windows NT 10.0; Win64; x64) AppleWebKit/537.36 (KHTML, like Gecko) Chrome/128.0.0.0 Safari/537.36 OPR/114.0.0.0" version="26.0.7">
  <diagram id="C5RBs43oDa-KdzZeNtuy" name="Page-1">
    <mxGraphModel dx="1393" dy="769" grid="1" gridSize="10" guides="1" tooltips="1" connect="1" arrows="1" fold="1" page="1" pageScale="1" pageWidth="827" pageHeight="1169" math="0" shadow="0">
      <root>
        <mxCell id="WIyWlLk6GJQsqaUBKTNV-0" />
        <mxCell id="WIyWlLk6GJQsqaUBKTNV-1" parent="WIyWlLk6GJQsqaUBKTNV-0" />
        <mxCell id="WIyWlLk6GJQsqaUBKTNV-2" value="" style="rounded=0;html=1;jettySize=auto;orthogonalLoop=1;fontSize=11;endArrow=block;endFill=0;endSize=8;strokeWidth=1;shadow=0;labelBackgroundColor=none;edgeStyle=orthogonalEdgeStyle;" parent="WIyWlLk6GJQsqaUBKTNV-1" edge="1">
          <mxGeometry relative="1" as="geometry">
            <mxPoint x="220" y="121" as="sourcePoint" />
            <mxPoint x="220" y="171" as="targetPoint" />
          </mxGeometry>
        </mxCell>
        <mxCell id="i84fW4wx1hATlZ8KrpbI-8" value="" style="edgeStyle=orthogonalEdgeStyle;rounded=0;orthogonalLoop=1;jettySize=auto;html=1;" edge="1" parent="WIyWlLk6GJQsqaUBKTNV-1" target="i84fW4wx1hATlZ8KrpbI-7">
          <mxGeometry relative="1" as="geometry">
            <mxPoint x="280" y="101" as="sourcePoint" />
          </mxGeometry>
        </mxCell>
        <mxCell id="WIyWlLk6GJQsqaUBKTNV-3" value="EzShare" style="rounded=1;whiteSpace=wrap;html=1;fontSize=12;glass=0;strokeWidth=1;shadow=0;" parent="WIyWlLk6GJQsqaUBKTNV-1" vertex="1">
          <mxGeometry x="160" y="80" width="120" height="40" as="geometry" />
        </mxCell>
        <mxCell id="i84fW4wx1hATlZ8KrpbI-3" value="" style="edgeStyle=orthogonalEdgeStyle;rounded=0;orthogonalLoop=1;jettySize=auto;html=1;" edge="1" parent="WIyWlLk6GJQsqaUBKTNV-1" target="i84fW4wx1hATlZ8KrpbI-2">
          <mxGeometry relative="1" as="geometry">
            <mxPoint x="280" y="201" as="sourcePoint" />
          </mxGeometry>
        </mxCell>
        <mxCell id="i84fW4wx1hATlZ8KrpbI-0" value="EC2" style="rounded=1;whiteSpace=wrap;html=1;" vertex="1" parent="WIyWlLk6GJQsqaUBKTNV-1">
          <mxGeometry x="160" y="170" width="120" height="60" as="geometry" />
        </mxCell>
        <mxCell id="i84fW4wx1hATlZ8KrpbI-6" value="" style="edgeStyle=orthogonalEdgeStyle;rounded=0;orthogonalLoop=1;jettySize=auto;html=1;" edge="1" parent="WIyWlLk6GJQsqaUBKTNV-1" source="i84fW4wx1hATlZ8KrpbI-2">
          <mxGeometry relative="1" as="geometry">
            <mxPoint x="420" y="291" as="targetPoint" />
          </mxGeometry>
        </mxCell>
        <mxCell id="i84fW4wx1hATlZ8KrpbI-2" value="API GATEWAY" style="rounded=1;whiteSpace=wrap;html=1;" vertex="1" parent="WIyWlLk6GJQsqaUBKTNV-1">
          <mxGeometry x="360" y="171" width="120" height="60" as="geometry" />
        </mxCell>
        <mxCell id="i84fW4wx1hATlZ8KrpbI-9" value="" style="edgeStyle=orthogonalEdgeStyle;rounded=0;orthogonalLoop=1;jettySize=auto;html=1;" edge="1" parent="WIyWlLk6GJQsqaUBKTNV-1" source="i84fW4wx1hATlZ8KrpbI-7">
          <mxGeometry relative="1" as="geometry">
            <mxPoint x="280" y="101" as="targetPoint" />
          </mxGeometry>
        </mxCell>
        <mxCell id="i84fW4wx1hATlZ8KrpbI-7" value="AWS COGNITO" style="whiteSpace=wrap;html=1;rounded=1;glass=0;strokeWidth=1;shadow=0;" vertex="1" parent="WIyWlLk6GJQsqaUBKTNV-1">
          <mxGeometry x="360" y="71" width="120" height="60" as="geometry" />
        </mxCell>
        <mxCell id="i84fW4wx1hATlZ8KrpbI-10" value="AMAZON DYNAMODB" style="shape=cylinder3;whiteSpace=wrap;html=1;boundedLbl=1;backgroundOutline=1;size=15;" vertex="1" parent="WIyWlLk6GJQsqaUBKTNV-1">
          <mxGeometry x="380" y="290" width="80" height="90" as="geometry" />
        </mxCell>
      </root>
    </mxGraphModel>
  </diagram>
</mxfile>
